# xmcd CD database file
#
# Track frame offsets:
#	150
#	10732
#	22901
#	47464
#	65520
#	84685
#	106828
#	124928
#	144777
#	166769
#	189949
#	208268
#
# Disc length: 3104 seconds
#
# Revision: 0
# Processed by: cddbd v1.5.1PL0 Copyright (c) Steve Scherf et al.
# Submitted via: CDex 1.51
#
DISCID=910c1e0c
DTITLE=Sanctuary 02  - By Celtic Waters
DYEAR=2002
DGENRE=New Age
TTITLE0=Maidin Samhradh (Summer Morning)
TTITLE1=By Celtic Waters
TTITLE2=On Raglan Road
TTITLE3=The Curragh Of Kildare
TTITLE4=Sweet Adare
TTITLE5=Sally Gardens
TTITLE6=The Harp That Once Through Tara`s Halls
TTITLE7=Spancil Hill
TTITLE8=Banks Of Claudy
TTITLE9=Carrickfergus
TTITLE10=Snowy Breasted Pearl
TTITLE11=She Moved Through The Fair
EXTD=YEAR: 2002
EXTT0=
EXTT1=
EXTT2=
EXTT3=
EXTT4=
EXTT5=
EXTT6=
EXTT7=
EXTT8=
EXTT9=
EXTT10=
EXTT11=
PLAYORDER=
